<svg width="20" height="20" viewBox="0 0 20 20" fill="none" xmlns="http://www.w3.org/2000/svg">
<path d="M12.3583 9.40825L8.82495 5.87492C8.74748 5.79681 8.65532 5.73481 8.55377 5.69251C8.45222 5.6502 8.3433 5.62842 8.23329 5.62842C8.12328 5.62842 8.01435 5.6502 7.91281 5.69251C7.81126 5.73481 7.71909 5.79681 7.64162 5.87492C7.48641 6.03105 7.39929 6.24226 7.39929 6.46242C7.39929 6.68257 7.48641 6.89378 7.64162 7.04992L10.5916 9.99992L7.64162 12.9499C7.48641 13.1061 7.39929 13.3173 7.39929 13.5374C7.39929 13.7576 7.48641 13.9688 7.64162 14.1249C7.71949 14.2022 7.81183 14.2633 7.91336 14.3047C8.0149 14.3462 8.12361 14.3672 8.23329 14.3666C8.34296 14.3672 8.45168 14.3462 8.55321 14.3047C8.65474 14.2633 8.74709 14.2022 8.82495 14.1249L12.3583 10.5916C12.4364 10.5141 12.4984 10.4219 12.5407 10.3204C12.583 10.2188 12.6048 10.1099 12.6048 9.99992C12.6048 9.88991 12.583 9.78098 12.5407 9.67944C12.4984 9.57789 12.4364 9.48572 12.3583 9.40825Z" fill="#959595"/>
</svg>
