<svg width="16" height="16" viewBox="0 0 16 16" fill="none" xmlns="http://www.w3.org/2000/svg">
<path d="M3.3333 13.337H6.15997C6.24771 13.3375 6.33468 13.3207 6.41591 13.2876C6.49713 13.2544 6.57101 13.2055 6.6333 13.1437L11.2466 8.5237L13.14 6.67037C13.2025 6.60839 13.2521 6.53466 13.2859 6.45342C13.3197 6.37218 13.3372 6.28504 13.3372 6.19704C13.3372 6.10903 13.3197 6.02189 13.2859 5.94065C13.2521 5.85941 13.2025 5.78568 13.14 5.7237L10.3133 2.8637C10.2513 2.80122 10.1776 2.75162 10.0964 2.71778C10.0151 2.68393 9.92798 2.6665 9.83997 2.6665C9.75196 2.6665 9.66483 2.68393 9.58359 2.71778C9.50235 2.75162 9.42861 2.80122 9.36664 2.8637L7.48664 4.75037L2.85997 9.37037C2.79818 9.43266 2.7493 9.50654 2.71612 9.58777C2.68295 9.66899 2.66613 9.75597 2.66664 9.8437V12.6704C2.66664 12.8472 2.73688 13.0168 2.8619 13.1418C2.98692 13.2668 3.15649 13.337 3.3333 13.337ZM9.83997 4.27704L11.7266 6.1637L10.78 7.11037L8.8933 5.2237L9.83997 4.27704ZM3.99997 10.117L7.9533 6.1637L9.83997 8.05037L5.88664 12.0037H3.99997V10.117Z" fill="#005AC4"/>
</svg>
