<svg width="16" height="16" viewBox="0 0 16 16" fill="none" xmlns="http://www.w3.org/2000/svg">
<path d="M8.00008 8.66683C7.82327 8.66683 7.6537 8.73707 7.52868 8.86209C7.40365 8.98712 7.33341 9.15669 7.33341 9.3335V11.3335C7.33341 11.5103 7.40365 11.6799 7.52868 11.8049C7.6537 11.9299 7.82327 12.0002 8.00008 12.0002C8.17689 12.0002 8.34646 11.9299 8.47149 11.8049C8.59651 11.6799 8.66675 11.5103 8.66675 11.3335V9.3335C8.66675 9.15669 8.59651 8.98712 8.47149 8.86209C8.34646 8.73707 8.17689 8.66683 8.00008 8.66683ZM11.3334 6.00016V4.66683C11.3334 3.78277 10.9822 2.93493 10.3571 2.30981C9.73198 1.68469 8.88414 1.3335 8.00008 1.3335C7.11603 1.3335 6.26818 1.68469 5.64306 2.30981C5.01794 2.93493 4.66675 3.78277 4.66675 4.66683V6.00016C4.13631 6.00016 3.62761 6.21088 3.25253 6.58595C2.87746 6.96102 2.66675 7.46973 2.66675 8.00016V12.6668C2.66675 13.1973 2.87746 13.706 3.25253 14.081C3.62761 14.4561 4.13631 14.6668 4.66675 14.6668H11.3334C11.8638 14.6668 12.3726 14.4561 12.7476 14.081C13.1227 13.706 13.3334 13.1973 13.3334 12.6668V8.00016C13.3334 7.46973 13.1227 6.96102 12.7476 6.58595C12.3726 6.21088 11.8638 6.00016 11.3334 6.00016ZM6.00008 4.66683C6.00008 4.1364 6.21079 3.62769 6.58587 3.25262C6.96094 2.87754 7.46965 2.66683 8.00008 2.66683C8.53051 2.66683 9.03922 2.87754 9.41429 3.25262C9.78937 3.62769 10.0001 4.1364 10.0001 4.66683V6.00016H6.00008V4.66683ZM12.0001 12.6668C12.0001 12.8436 11.9298 13.0132 11.8048 13.1382C11.6798 13.2633 11.5102 13.3335 11.3334 13.3335H4.66675C4.48994 13.3335 4.32037 13.2633 4.19534 13.1382C4.07032 13.0132 4.00008 12.8436 4.00008 12.6668V8.00016C4.00008 7.82335 4.07032 7.65378 4.19534 7.52876C4.32037 7.40373 4.48994 7.3335 4.66675 7.3335H11.3334C11.5102 7.3335 11.6798 7.40373 11.8048 7.52876C11.9298 7.65378 12.0001 7.82335 12.0001 8.00016V12.6668Z" fill="#FF9900"/>
</svg>
