<svg width="20" height="20" viewBox="0 0 20 20" fill="none" xmlns="http://www.w3.org/2000/svg">
<path d="M15.8334 5.41683H13.3334V4.5835C13.3334 3.92045 13.07 3.28457 12.6012 2.81573C12.1323 2.34689 11.4965 2.0835 10.8334 2.0835H9.16675C8.50371 2.0835 7.86782 2.34689 7.39898 2.81573C6.93014 3.28457 6.66675 3.92045 6.66675 4.5835V5.41683H4.16675C3.50371 5.41683 2.86782 5.68022 2.39898 6.14906C1.93014 6.6179 1.66675 7.25379 1.66675 7.91683V15.4168C1.66675 16.0799 1.93014 16.7158 2.39898 17.1846C2.86782 17.6534 3.50371 17.9168 4.16675 17.9168H15.8334C16.4965 17.9168 17.1323 17.6534 17.6012 17.1846C18.07 16.7158 18.3334 16.0799 18.3334 15.4168V7.91683C18.3334 7.25379 18.07 6.6179 17.6012 6.14906C17.1323 5.68022 16.4965 5.41683 15.8334 5.41683ZM8.33342 4.5835C8.33342 4.36248 8.42121 4.15052 8.57749 3.99424C8.73377 3.83796 8.94573 3.75016 9.16675 3.75016H10.8334C11.0544 3.75016 11.2664 3.83796 11.4227 3.99424C11.579 4.15052 11.6667 4.36248 11.6667 4.5835V5.41683H8.33342V4.5835ZM16.6667 15.4168C16.6667 15.6378 16.579 15.8498 16.4227 16.0061C16.2664 16.1624 16.0544 16.2502 15.8334 16.2502H4.16675C3.94573 16.2502 3.73377 16.1624 3.57749 16.0061C3.42121 15.8498 3.33341 15.6378 3.33341 15.4168V11.2085H5.83342V12.0835C5.83342 12.3045 5.92121 12.5165 6.07749 12.6728C6.23377 12.829 6.44573 12.9168 6.66675 12.9168C6.88776 12.9168 7.09972 12.829 7.256 12.6728C7.41228 12.5165 7.50008 12.3045 7.50008 12.0835V11.2085H12.5001V12.0835C12.5001 12.3045 12.5879 12.5165 12.7442 12.6728C12.9004 12.829 13.1124 12.9168 13.3334 12.9168C13.5544 12.9168 13.7664 12.829 13.9227 12.6728C14.079 12.5165 14.1667 12.3045 14.1667 12.0835V11.2085H16.6667V15.4168ZM16.6667 9.5835H3.33341V7.91683C3.33341 7.69582 3.42121 7.48385 3.57749 7.32757C3.73377 7.17129 3.94573 7.0835 4.16675 7.0835H15.8334C16.0544 7.0835 16.2664 7.17129 16.4227 7.32757C16.579 7.48385 16.6667 7.69582 16.6667 7.91683V9.5835Z" fill="#A7A7A7"/>
</svg>
