<svg width="16" height="16" viewBox="0 0 16 16" fill="none" xmlns="http://www.w3.org/2000/svg">
<path d="M12.6667 4.33317H10.6667V3.6665C10.6667 3.13607 10.456 2.62736 10.0809 2.25229C9.70585 1.87722 9.19714 1.6665 8.66671 1.6665H7.33337C6.80294 1.6665 6.29423 1.87722 5.91916 2.25229C5.54409 2.62736 5.33337 3.13607 5.33337 3.6665V4.33317H3.33337C2.80294 4.33317 2.29423 4.54388 1.91916 4.91896C1.54409 5.29403 1.33337 5.80274 1.33337 6.33317V12.3332C1.33337 12.8636 1.54409 13.3723 1.91916 13.7474C2.29423 14.1225 2.80294 14.3332 3.33337 14.3332H12.6667C13.1971 14.3332 13.7058 14.1225 14.0809 13.7474C14.456 13.3723 14.6667 12.8636 14.6667 12.3332V6.33317C14.6667 5.80274 14.456 5.29403 14.0809 4.91896C13.7058 4.54388 13.1971 4.33317 12.6667 4.33317ZM6.66671 3.6665C6.66671 3.48969 6.73695 3.32012 6.86197 3.1951C6.98699 3.07008 7.15656 2.99984 7.33337 2.99984H8.66671C8.84352 2.99984 9.01309 3.07008 9.13811 3.1951C9.26314 3.32012 9.33337 3.48969 9.33337 3.6665V4.33317H6.66671V3.6665ZM13.3334 12.3332C13.3334 12.51 13.2631 12.6796 13.1381 12.8046C13.0131 12.9296 12.8435 12.9998 12.6667 12.9998H3.33337C3.15656 12.9998 2.98699 12.9296 2.86197 12.8046C2.73695 12.6796 2.66671 12.51 2.66671 12.3332V8.9665H4.66671V9.6665C4.66671 9.84331 4.73695 10.0129 4.86197 10.1379C4.98699 10.2629 5.15656 10.3332 5.33337 10.3332C5.51019 10.3332 5.67975 10.2629 5.80478 10.1379C5.9298 10.0129 6.00004 9.84331 6.00004 9.6665V8.9665H10V9.6665C10 9.84331 10.0703 10.0129 10.1953 10.1379C10.3203 10.2629 10.4899 10.3332 10.6667 10.3332C10.8435 10.3332 11.0131 10.2629 11.1381 10.1379C11.2631 10.0129 11.3334 9.84331 11.3334 9.6665V8.9665H13.3334V12.3332ZM13.3334 7.6665H2.66671V6.33317C2.66671 6.15636 2.73695 5.98679 2.86197 5.86177C2.98699 5.73674 3.15656 5.6665 3.33337 5.6665H12.6667C12.8435 5.6665 13.0131 5.73674 13.1381 5.86177C13.2631 5.98679 13.3334 6.15636 13.3334 6.33317V7.6665Z" fill="#A7A7A7"/>
</svg>
