<svg width="20" height="20" viewBox="0 0 20 20" fill="none" xmlns="http://www.w3.org/2000/svg">
<path d="M10.2499 10.1832C10.6946 9.79828 11.0512 9.32224 11.2956 8.78736C11.5401 8.25247 11.6666 7.67126 11.6666 7.08317C11.6666 5.9781 11.2276 4.91829 10.4462 4.13689C9.66479 3.35549 8.60499 2.9165 7.49992 2.9165C6.39485 2.9165 5.33504 3.35549 4.55364 4.13689C3.77224 4.91829 3.33325 5.9781 3.33325 7.08317C3.33325 7.67126 3.45975 8.25247 3.70419 8.78736C3.94863 9.32224 4.30527 9.79828 4.74992 10.1832C3.58337 10.7114 2.59364 11.5644 1.89907 12.6403C1.2045 13.7161 0.834478 14.9693 0.833252 16.2498C0.833252 16.4709 0.921049 16.6828 1.07733 16.8391C1.23361 16.9954 1.44557 17.0832 1.66659 17.0832C1.8876 17.0832 2.09956 16.9954 2.25584 16.8391C2.41212 16.6828 2.49992 16.4709 2.49992 16.2498C2.49992 14.9238 3.0267 13.652 3.96438 12.7143C4.90207 11.7766 6.17384 11.2498 7.49992 11.2498C8.826 11.2498 10.0978 11.7766 11.0355 12.7143C11.9731 13.652 12.4999 14.9238 12.4999 16.2498C12.4999 16.4709 12.5877 16.6828 12.744 16.8391C12.9003 16.9954 13.1122 17.0832 13.3333 17.0832C13.5543 17.0832 13.7662 16.9954 13.9225 16.8391C14.0788 16.6828 14.1666 16.4709 14.1666 16.2498C14.1654 14.9693 13.7953 13.7161 13.1008 12.6403C12.4062 11.5644 11.4165 10.7114 10.2499 10.1832ZM7.49992 9.58317C7.00547 9.58317 6.52212 9.43655 6.11099 9.16184C5.69987 8.88714 5.37944 8.49669 5.19022 8.03988C5.001 7.58306 4.95149 7.0804 5.04796 6.59544C5.14442 6.11049 5.38252 5.66504 5.73215 5.3154C6.08178 4.96577 6.52724 4.72767 7.01219 4.63121C7.49715 4.53474 7.99981 4.58425 8.45663 4.77347C8.91344 4.96269 9.30389 5.28312 9.57859 5.69425C9.8533 6.10537 9.99992 6.58872 9.99992 7.08317C9.99992 7.74621 9.73653 8.3821 9.26769 8.85094C8.79884 9.31978 8.16296 9.58317 7.49992 9.58317ZM15.6166 9.84984C16.1499 9.24928 16.4983 8.50738 16.6198 7.71345C16.7412 6.91952 16.6307 6.1074 16.3014 5.37484C15.9721 4.64228 15.4381 4.0205 14.7636 3.58436C14.0892 3.14821 13.3031 2.91629 12.4999 2.9165C12.2789 2.9165 12.0669 3.0043 11.9107 3.16058C11.7544 3.31686 11.6666 3.52882 11.6666 3.74984C11.6666 3.97085 11.7544 4.18281 11.9107 4.33909C12.0669 4.49537 12.2789 4.58317 12.4999 4.58317C13.163 4.58317 13.7988 4.84656 14.2677 5.3154C14.7365 5.78424 14.9999 6.42013 14.9999 7.08317C14.9987 7.52087 14.8827 7.95059 14.6633 8.32935C14.4439 8.70812 14.129 9.02265 13.7499 9.2415C13.6264 9.31277 13.5232 9.41456 13.4502 9.53712C13.3773 9.65968 13.337 9.79892 13.3333 9.9415C13.3298 10.083 13.3624 10.223 13.428 10.3484C13.4936 10.4738 13.59 10.5804 13.7083 10.6582L14.0333 10.8748L14.1416 10.9332C15.1461 11.4096 15.9935 12.1632 16.5841 13.1051C17.1746 14.047 17.4837 15.1381 17.4749 16.2498C17.4749 16.4709 17.5627 16.6828 17.719 16.8391C17.8753 16.9954 18.0872 17.0832 18.3083 17.0832C18.5293 17.0832 18.7412 16.9954 18.8975 16.8391C19.0538 16.6828 19.1416 16.4709 19.1416 16.2498C19.1484 14.971 18.8281 13.7117 18.2111 12.5916C17.5942 11.4714 16.701 10.5276 15.6166 9.84984Z" fill="#A7A7A7"/>
</svg>
