<svg width="20" height="20" viewBox="0 0 20 20" fill="none" xmlns="http://www.w3.org/2000/svg">
<path d="M17.5001 1.6665H2.50008C2.27907 1.6665 2.06711 1.7543 1.91083 1.91058C1.75455 2.06686 1.66675 2.27882 1.66675 2.49984V17.4998C1.66675 17.7209 1.75455 17.9328 1.91083 18.0891C2.06711 18.2454 2.27907 18.3332 2.50008 18.3332H17.5001C17.7211 18.3332 17.9331 18.2454 18.0893 18.0891C18.2456 17.9328 18.3334 17.7209 18.3334 17.4998V2.49984C18.3334 2.27882 18.2456 2.06686 18.0893 1.91058C17.9331 1.7543 17.7211 1.6665 17.5001 1.6665ZM9.16675 16.6665H3.33341V8.33317H9.16675V16.6665ZM16.6667 16.6665H10.8334V8.33317H16.6667V16.6665ZM16.6667 6.6665H3.33341V3.33317H16.6667V6.6665Z" fill="#959595"/>
</svg>
